<?xml version="1.0" encoding="UTF-8" standalone="no"?>
<svg width="275pt" height="198pt" viewBox="0.00 0.00 275.36 198.10" xmlns="http://www.w3.org/2000/svg" xmlns:xlink="http://www.w3.org/1999/xlink">
<g id="graph0" class="graph" transform="scale(1 1) rotate(0) translate(4 194.1)">
<title>HomeAutomation</title>
<polygon fill="#0D1217" stroke="none" points="-4,4 -4,-194.1 271.36,-194.1 271.36,4 -4,4"></polygon>
<!-- s -->
<g id="node1" class="node">
<title>s</title>
<polygon fill="#212121" stroke="#888888" stroke-width="1.2" points="169.89,-119.2 105.66,-119.2 105.66,-83.2 169.89,-83.2 169.89,-119.2"></polygon>
<text text-anchor="middle" x="137.77" y="-97" font-family="Segoe UI" font-size="14.00" fill="#DDDDDD">Système</text>
</g>
<!-- e -->
<g id="node3" class="node">
<title>e</title>
<polygon fill="#212121" stroke="#888888" stroke-width="1.2" points="137.44,-36 70.14,-36 70.14,0 137.44,0 137.44,-36"></polygon>
<text text-anchor="middle" x="103.79" y="-13.8" font-family="Segoe UI" font-size="14.00" fill="#DDDDDD">Éclairage</text>
</g>
<!-- s&#45;&gt;e -->
<g id="edge3" class="edge">
<title>s-&gt;e</title>
<path fill="none" stroke="#54CC54" stroke-width="1.6" d="M126.43,-73.44C122.82,-64.59 118.82,-54.79 115.19,-45.93"></path>
<polygon fill="#54CC54" stroke="#54CC54" stroke-width="1.6" points="123.7,-74.15 129.31,-80.5 128.88,-72.03 123.7,-74.15"></polygon>
<polygon fill="#54CC54" stroke="#54CC54" stroke-width="1.6" points="117.84,-45 112.23,-38.66 112.66,-47.12 117.84,-45"></polygon>
<text text-anchor="middle" x="104.15" y="-61.95" font-family="Segoe UI" font-size="9.00" fill="#DDDDDD">EnOcean</text>
</g>
<!-- v -->
<g id="node4" class="node">
<title>v</title>
<polygon fill="#212121" stroke="#888888" stroke-width="1.2" points="267.36,-131.07 213.36,-131.07 213.36,-95.07 267.36,-95.07 267.36,-131.07"></polygon>
<text text-anchor="middle" x="240.36" y="-108.87" font-family="Segoe UI" font-size="14.00" fill="#DDDDDD">Volets</text>
</g>
<!-- s&#45;&gt;v -->
<g id="edge4" class="edge">
<title>s-&gt;v</title>
<path fill="none" stroke="#CC5454" stroke-width="1.6" d="M180.51,-106.15C187.88,-107 195.49,-107.88 202.71,-108.71"></path>
<polygon fill="#CC5454" stroke="#CC5454" stroke-width="1.6" points="180.9,-103.37 172.64,-105.24 180.26,-108.94 180.9,-103.37"></polygon>
<polygon fill="#CC5454" stroke="#CC5454" stroke-width="1.6" points="202.26,-111.48 210.53,-109.62 202.9,-105.92 202.26,-111.48"></polygon>
<text text-anchor="middle" x="186.57" y="-110.1" font-family="Segoe UI" font-size="9.00" fill="#DDDDDD">IO</text>
</g>
<!-- t -->
<g id="node5" class="node">
<title>t</title>
<polygon fill="#212121" stroke="#888888" stroke-width="1.2" points="157.18,-190.1 77.42,-190.1 77.42,-154.1 157.18,-154.1 157.18,-190.1"></polygon>
<text text-anchor="middle" x="117.3" y="-167.9" font-family="Segoe UI" font-size="14.00" fill="#DDDDDD">Thermostat</text>
</g>
<!-- s&#45;&gt;t -->
<g id="edge5" class="edge">
<title>s-&gt;t</title>
<path fill="none" stroke="#CC7632" stroke-width="1.6" d="M129.64,-129.38C128.27,-134.1 126.86,-139 125.49,-143.73"></path>
<polygon fill="#CC7632" stroke="#CC7632" stroke-width="1.6" points="132.3,-130.25 131.83,-121.79 126.92,-128.7 132.3,-130.25"></polygon>
<polygon fill="#CC7632" stroke="#CC7632" stroke-width="1.6" points="122.83,-142.87 123.3,-151.33 128.21,-144.42 122.83,-142.87"></polygon>
<text text-anchor="middle" x="119.31" y="-139.25" font-family="Segoe UI" font-size="9.00" fill="#DDDDDD">RTS</text>
</g>
<!-- fp -->
<g id="node6" class="node">
<title>fp</title>
<polygon fill="#212121" stroke="#888888" stroke-width="1.2" points="67.73,-124.88 0,-124.88 0,-88.88 67.73,-88.88 67.73,-124.88"></polygon>
<text text-anchor="middle" x="33.87" y="-102.68" font-family="Segoe UI" font-size="14.00" fill="#DDDDDD">Fil Pilote</text>
</g>
<!-- s&#45;&gt;fp -->
<!-- i -->
<g id="node2" class="node">
<title>i</title>
<polygon fill="#212121" stroke="#888888" stroke-width="1.2" points="266.49,-54.38 178.18,-54.38 178.18,-18.38 266.49,-18.38 266.49,-54.38"></polygon>
<text text-anchor="middle" x="222.34" y="-32.18" font-family="Segoe UI" font-size="14.00" fill="#DDDDDD">Interrupteurs</text>
</g>
<!-- i&#45;&gt;s -->
<g id="edge1" class="edge">
<title>i-&gt;s</title>
<path fill="none" stroke="#54CC54" stroke-width="1.6" d="M198.33,-54.78C189.49,-61.56 179.34,-69.34 169.9,-76.58"></path>
<polygon fill="#54CC54" stroke="#54CC54" stroke-width="1.6" points="168.41,-74.19 163.76,-81.28 171.81,-78.64 168.41,-74.19"></polygon>
<text text-anchor="middle" x="163.77" y="-71.34" font-family="Segoe UI" font-size="9.00" fill="#DDDDDD">EnOcean</text>
</g>
<!-- i&#45;&gt;e -->
<g id="edge2" class="edge">
<title>i-&gt;e</title>
<path fill="none" stroke="#54CC54" stroke-width="1.6" d="M177.86,-29.48C168.11,-27.97 157.79,-26.37 148.06,-24.86"></path>
<polygon fill="#54CC54" stroke="#54CC54" stroke-width="1.6" points="148.5,-22.1 140.16,-23.64 147.64,-27.63 148.5,-22.1"></polygon>
<text text-anchor="middle" x="157.79" y="-18.27" font-family="Segoe UI" font-size="9.00" fill="#DDDDDD">EnOcean</text>
</g>
<!-- i&#45;&gt;v -->
<!-- t&#45;&gt;fp -->
<g id="edge6" class="edge">
<title>t-&gt;fp</title>
<path fill="none" stroke="#CC7632" stroke-width="1.6" d="M94.06,-153.93C85.18,-146.99 74.91,-138.96 65.39,-131.52"></path>
<polygon fill="#CC7632" stroke="#CC7632" stroke-width="1.6" points="67.21,-129.39 59.18,-126.67 63.76,-133.8 67.21,-129.39"></polygon>
<text text-anchor="middle" x="65.1" y="-142.39" font-family="Segoe UI" font-size="9.00" fill="#DDDDDD">Radio</text>
</g>
</g>
</svg>