<?xml version="1.0" encoding="UTF-8" standalone="no"?>
<svg width="426pt" height="182pt" viewBox="0.00 0.00 425.76 182.11" xmlns="http://www.w3.org/2000/svg" xmlns:xlink="http://www.w3.org/1999/xlink">
<g id="graph0" class="graph" transform="scale(1 1) rotate(0) translate(4 178.11)">
<title>HomeAutomation</title>
<polygon fill="#0D1217" stroke="none" points="-4,4 -4,-178.11 421.76,-178.11 421.76,4 -4,4"></polygon>
<!-- s -->
<g id="node1" class="node">
<title>s</title>
<polygon fill="#212121" stroke="#888888" stroke-width="1.2" points="177.84,-114.95 113.61,-114.95 113.61,-78.95 177.84,-78.95 177.84,-114.95"></polygon>
<text text-anchor="middle" x="145.72" y="-92.75" font-family="Segoe UI" font-size="14.00" fill="#DDDDDD">Système</text>
</g>
<!-- ta -->
<g id="node2" class="node">
<title>ta</title>
<polygon fill="#212121" stroke="#888888" stroke-width="1.2" points="281.76,-100.57 219.89,-100.57 219.89,-64.57 281.76,-64.57 281.76,-100.57"></polygon>
<text text-anchor="middle" x="250.82" y="-78.37" font-family="Segoe UI" font-size="14.00" fill="#DDDDDD">Tahoma</text>
</g>
<!-- s&#45;&gt;ta -->
<g id="edge3" class="edge">
<title>s-&gt;ta</title>
<path fill="none" stroke="#CBCC32" stroke-width="1.6" d="M188.28,-91.13C195.28,-90.17 202.52,-89.18 209.49,-88.23"></path>
<polygon fill="#CBCC32" stroke="#CBCC32" stroke-width="1.6" points="188.06,-88.33 180.51,-92.19 188.82,-93.88 188.06,-88.33"></polygon>
<polygon fill="#CBCC32" stroke="#CBCC32" stroke-width="1.6" points="209.49,-91.05 217.04,-87.19 208.74,-85.5 209.49,-91.05"></polygon>
<text text-anchor="middle" x="188.82" y="-92.42" font-family="Segoe UI" font-size="9.00" fill="#DDDDDD">Wi-fi</text>
</g>
<!-- e -->
<g id="node4" class="node">
<title>e</title>
<polygon fill="#212121" stroke="#888888" stroke-width="1.2" points="101.02,-174.11 33.73,-174.11 33.73,-138.11 101.02,-138.11 101.02,-174.11"></polygon>
<text text-anchor="middle" x="67.37" y="-151.91" font-family="Segoe UI" font-size="14.00" fill="#DDDDDD">Éclairage</text>
</g>
<!-- s&#45;&gt;e -->
<g id="edge4" class="edge">
<title>s-&gt;e</title>
<path fill="none" stroke="#54CC54" stroke-width="1.6" d="M113.14,-121.55C108.77,-124.85 104.29,-128.23 99.92,-131.53"></path>
<polygon fill="#54CC54" stroke="#54CC54" stroke-width="1.6" points="114.73,-123.86 119.43,-116.8 111.36,-119.39 114.73,-123.86"></polygon>
<polygon fill="#54CC54" stroke="#54CC54" stroke-width="1.6" points="98.35,-129.21 93.65,-136.26 101.72,-133.68 98.35,-129.21"></polygon>
<text text-anchor="middle" x="90.04" y="-129.24" font-family="Segoe UI" font-size="9.00" fill="#DDDDDD">EnOcean</text>
</g>
<!-- v -->
<g id="node5" class="node">
<title>v</title>
<polygon fill="#212121" stroke="#888888" stroke-width="1.2" points="366.3,-150.04 312.3,-150.04 312.3,-114.04 366.3,-114.04 366.3,-150.04"></polygon>
<text text-anchor="middle" x="339.3" y="-127.84" font-family="Segoe UI" font-size="14.00" fill="#DDDDDD">Volets</text>
</g>
<!-- ta&#45;&gt;v -->
<g id="edge5" class="edge">
<title>ta-&gt;v</title>
<path fill="none" stroke="#CC5454" stroke-width="1.6" d="M290.76,-104.9C294.92,-107.23 299.14,-109.59 303.26,-111.89"></path>
<polygon fill="#CC5454" stroke="#CC5454" stroke-width="1.6" points="292.23,-102.52 283.88,-101.06 289.5,-107.4 292.23,-102.52"></polygon>
<polygon fill="#CC5454" stroke="#CC5454" stroke-width="1.6" points="301.6,-114.17 309.95,-115.63 304.33,-109.28 301.6,-114.17"></polygon>
<text text-anchor="middle" x="291.88" y="-110.88" font-family="Segoe UI" font-size="9.00" fill="#DDDDDD">IO</text>
</g>
<!-- t -->
<g id="node6" class="node">
<title>t</title>
<polygon fill="#212121" stroke="#888888" stroke-width="1.2" points="417.76,-69 338,-69 338,-33 417.76,-33 417.76,-69"></polygon>
<text text-anchor="middle" x="377.88" y="-46.8" font-family="Segoe UI" font-size="14.00" fill="#DDDDDD">Thermostat</text>
</g>
<!-- ta&#45;&gt;t -->
<g id="edge6" class="edge">
<title>ta-&gt;t</title>
<path fill="none" stroke="#CC7632" stroke-width="1.6" d="M292.04,-72.33C303.48,-69.49 316.03,-66.37 327.92,-63.42"></path>
<polygon fill="#CC7632" stroke="#CC7632" stroke-width="1.6" points="291.67,-69.54 284.58,-74.19 293.02,-74.97 291.67,-69.54"></polygon>
<polygon fill="#CC7632" stroke="#CC7632" stroke-width="1.6" points="328.27,-66.22 335.36,-61.57 326.92,-60.78 328.27,-66.22"></polygon>
<text text-anchor="middle" x="301.56" y="-70.62" font-family="Segoe UI" font-size="9.00" fill="#DDDDDD">RTS</text>
</g>
<!-- fp -->
<g id="node7" class="node">
<title>fp</title>
<polygon fill="#212121" stroke="#888888" stroke-width="1.2" points="317.81,-36 250.08,-36 250.08,0 317.81,0 317.81,-36"></polygon>
<text text-anchor="middle" x="283.94" y="-13.8" font-family="Segoe UI" font-size="14.00" fill="#DDDDDD">Fil Pilote</text>
</g>
<!-- ta&#45;&gt;fp -->
<!-- i -->
<g id="node3" class="node">
<title>i</title>
<polygon fill="#212121" stroke="#888888" stroke-width="1.2" points="88.3,-71.34 0,-71.34 0,-35.34 88.3,-35.34 88.3,-71.34"></polygon>
<text text-anchor="middle" x="44.15" y="-49.14" font-family="Segoe UI" font-size="14.00" fill="#DDDDDD">Interrupteurs</text>
</g>
<!-- i&#45;&gt;s -->
<g id="edge1" class="edge">
<title>i-&gt;s</title>
<path fill="none" stroke="#54CC54" stroke-width="1.6" d="M87.23,-71.83C92.84,-74.24 98.58,-76.71 104.16,-79.1"></path>
<polygon fill="#54CC54" stroke="#54CC54" stroke-width="1.6" points="102.69,-81.52 111.14,-82.1 104.9,-76.37 102.69,-81.52"></polygon>
<text text-anchor="middle" x="83.99" y="-80.22" font-family="Segoe UI" font-size="9.00" fill="#DDDDDD">EnOcean</text>
</g>
<!-- i&#45;&gt;e -->
<g id="edge2" class="edge">
<title>i-&gt;e</title>
<path fill="none" stroke="#54CC54" stroke-width="1.6" d="M48.3,-71.71C51.82,-87.28 56.92,-109.85 60.96,-127.73"></path>
<polygon fill="#54CC54" stroke="#54CC54" stroke-width="1.6" points="58.23,-128.35 62.73,-135.53 63.69,-127.11 58.23,-128.35"></polygon>
<text text-anchor="middle" x="39.3" y="-107.56" font-family="Segoe UI" font-size="9.00" fill="#DDDDDD">EnOcean</text>
</g>
<!-- t&#45;&gt;v -->
<!-- t&#45;&gt;fp -->
<g id="edge7" class="edge">
<title>t-&gt;fp</title>
<path fill="none" stroke="#CC7632" stroke-width="1.6" d="M337.77,-36.91C334.53,-35.77 331.24,-34.62 327.98,-33.47"></path>
<polygon fill="#CC7632" stroke="#CC7632" stroke-width="1.6" points="329.06,-30.88 320.58,-30.87 327.2,-36.17 329.06,-30.88"></polygon>
<text text-anchor="middle" x="339.03" y="-25.48" font-family="Segoe UI" font-size="9.00" fill="#DDDDDD">Radio</text>
</g>
</g>
</svg>
