<?xml version="1.0" encoding="UTF-8" standalone="no"?>
<svg width="299pt" height="194pt" viewBox="0.00 0.00 299.40 194.27" xmlns="http://www.w3.org/2000/svg" xmlns:xlink="http://www.w3.org/1999/xlink">
<g id="graph0" class="graph" transform="scale(1 1) rotate(0) translate(4 190.27)">
<title>HomeAutomation</title>
<polygon fill="#0C1217" stroke="none" points="-4,4 -4,-190.27 295.4,-190.27 295.4,4 -4,4"></polygon>
<!-- f -->
<g id="node1" class="node">
<title>f</title>
<polygon fill="#212121" stroke="#888888" stroke-width="1.2" points="153.54,-102.28 94.76,-102.28 94.76,-66.28 153.54,-66.28 153.54,-102.28"></polygon>
<text text-anchor="middle" x="124.15" y="-80.08" font-family="Segoe UI" font-size="14.00" fill="#DDDDDD">Flexom</text>
</g>
<!-- e -->
<g id="node4" class="node">
<title>e</title>
<polygon fill="#212121" stroke="#888888" stroke-width="1.2" points="194.58,-183.67 127.28,-183.67 127.28,-147.67 194.58,-147.67 194.58,-183.67"></polygon>
<text text-anchor="middle" x="160.93" y="-161.47" font-family="Segoe UI" font-size="14.00" fill="#DDDDDD">Éclairage</text>
</g>
<!-- f&#45;&gt;e -->
<!-- v -->
<g id="node5" class="node">
<title>v</title>
<polygon fill="#212121" stroke="#888888" stroke-width="1.2" points="224.69,-36 170.69,-36 170.69,0 224.69,0 224.69,-36"></polygon>
<text text-anchor="middle" x="197.69" y="-13.8" font-family="Segoe UI" font-size="14.00" fill="#DDDDDD">Volets</text>
</g>
<!-- f&#45;&gt;v -->
<g id="edge6" class="edge">
<title>f-&gt;v</title>
<path fill="none" stroke="#CC5454" stroke-width="1.6" d="M152.35,-58.86C158.07,-53.71 164.08,-48.29 169.78,-43.15"></path>
<polygon fill="#CC5454" stroke="#CC5454" stroke-width="1.6" points="150.5,-56.76 146.43,-64.19 154.25,-60.92 150.5,-56.76"></polygon>
<polygon fill="#CC5454" stroke="#CC5454" stroke-width="1.6" points="171.45,-45.42 175.52,-37.98 167.7,-41.26 171.45,-45.42"></polygon>
<text text-anchor="middle" x="156.05" y="-53.95" font-family="Segoe UI" font-size="9.00" fill="#DDDDDD">IO</text>
</g>
<!-- t -->
<g id="node6" class="node">
<title>t</title>
<polygon fill="#212121" stroke="#888888" stroke-width="1.2" points="79.76,-154.25 0,-154.25 0,-118.25 79.76,-118.25 79.76,-154.25"></polygon>
<text text-anchor="middle" x="39.88" y="-132.05" font-family="Segoe UI" font-size="14.00" fill="#DDDDDD">Thermostat</text>
</g>
<!-- f&#45;&gt;t -->
<g id="edge7" class="edge">
<title>f-&gt;t</title>
<path fill="none" stroke="#CC7632" stroke-width="1.6" d="M86.17,-107.7C83.59,-109.29 80.99,-110.9 78.41,-112.49"></path>
<polygon fill="#CC7632" stroke="#CC7632" stroke-width="1.6" points="87.27,-110.31 92.61,-103.73 84.33,-105.54 87.27,-110.31"></polygon>
<polygon fill="#CC7632" stroke="#CC7632" stroke-width="1.6" points="77.16,-109.97 71.82,-116.55 80.1,-114.73 77.16,-109.97"></polygon>
<text text-anchor="middle" x="73.79" y="-102.14" font-family="Segoe UI" font-size="9.00" fill="#DDDDDD">RTS</text>
</g>
<!-- fp -->
<g id="node7" class="node">
<title>fp</title>
<polygon fill="#212121" stroke="#888888" stroke-width="1.2" points="74.58,-57.37 6.85,-57.37 6.85,-21.37 74.58,-21.37 74.58,-57.37"></polygon>
<text text-anchor="middle" x="40.71" y="-35.17" font-family="Segoe UI" font-size="14.00" fill="#DDDDDD">Fil Pilote</text>
</g>
<!-- f&#45;&gt;fp -->
<!-- s -->
<g id="node2" class="node">
<title>s</title>
<polygon fill="#212121" stroke="#888888" stroke-width="1.2" points="291.4,-186.27 227.17,-186.27 227.17,-150.27 291.4,-150.27 291.4,-186.27"></polygon>
<text text-anchor="middle" x="259.29" y="-164.07" font-family="Segoe UI" font-size="14.00" fill="#DDDDDD">Système</text>
</g>
<!-- s&#45;&gt;e -->
<g id="edge4" class="edge">
<title>s-&gt;e</title>
<path fill="none" stroke="#54CC54" stroke-width="1.6" d="M226.81,-167.41C219.97,-167.23 212.64,-167.04 205.44,-166.85"></path>
<polygon fill="#54CC54" stroke="#54CC54" stroke-width="1.6" points="205.55,-164.05 197.48,-166.64 205.41,-169.65 205.55,-164.05"></polygon>
<text text-anchor="middle" x="211.19" y="-158.9" font-family="Segoe UI" font-size="9.00" fill="#DDDDDD">EnOcean</text>
</g>
<!-- i -->
<g id="node3" class="node">
<title>i</title>
<polygon fill="#212121" stroke="#888888" stroke-width="1.2" points="269.65,-104.38 181.35,-104.38 181.35,-68.38 269.65,-68.38 269.65,-104.38"></polygon>
<text text-anchor="middle" x="225.5" y="-82.18" font-family="Segoe UI" font-size="14.00" fill="#DDDDDD">Interrupteurs</text>
</g>
<!-- i&#45;&gt;f -->
<g id="edge1" class="edge">
<title>i-&gt;f</title>
<path fill="none" stroke="#54CC54" stroke-width="1.6" d="M181.05,-85.46C175.47,-85.34 169.8,-85.22 164.29,-85.11"></path>
<polygon fill="#54CC54" stroke="#54CC54" stroke-width="1.6" points="164.47,-82.31 156.42,-84.94 164.36,-87.91 164.47,-82.31"></polygon>
<text text-anchor="middle" x="167.4" y="-77.07" font-family="Segoe UI" font-size="9.00" fill="#DDDDDD">EnOcean</text>
</g>
<!-- i&#45;&gt;s -->
<g id="edge3" class="edge">
<title>i-&gt;s</title>
<path fill="none" stroke="#54CC54" stroke-width="1.6" d="M233,-104.55C237.34,-115.08 242.9,-128.56 247.79,-140.4"></path>
<polygon fill="#54CC54" stroke="#54CC54" stroke-width="1.6" points="245.13,-141.3 250.77,-147.63 250.31,-139.16 245.13,-141.3"></polygon>
<text text-anchor="middle" x="225.86" y="-129.91" font-family="Segoe UI" font-size="9.00" fill="#DDDDDD">EnOcean</text>
</g>
<!-- i&#45;&gt;e -->
<g id="edge2" class="edge">
<title>i-&gt;e</title>
<path fill="none" stroke="#54CC54" stroke-width="1.6" d="M210.53,-104.77C202.13,-115.08 191.52,-128.11 182.27,-139.47"></path>
<polygon fill="#54CC54" stroke="#54CC54" stroke-width="1.6" points="180.24,-137.53 177.35,-145.5 184.58,-141.07 180.24,-137.53"></polygon>
<text text-anchor="middle" x="176.8" y="-128.63" font-family="Segoe UI" font-size="9.00" fill="#DDDDDD">EnOcean</text>
</g>
<!-- i&#45;&gt;v -->
<!-- t&#45;&gt;fp -->
<g id="edge8" class="edge">
<title>t-&gt;fp</title>
<path fill="none" stroke="#CC7632" stroke-width="1.6" d="M40.04,-118.03C40.16,-103.91 40.33,-84.09 40.47,-67.88"></path>
<polygon fill="#CC7632" stroke="#CC7632" stroke-width="1.6" points="43.27,-68.29 40.53,-60.26 37.67,-68.24 43.27,-68.29"></polygon>
<text text-anchor="middle" x="29.55" y="-90.67" font-family="Segoe UI" font-size="9.00" fill="#DDDDDD">Radio</text>
</g>
</g>
</svg>